<?xml version="1.0" encoding="UTF-8" standalone="no"?>
<svg
   xmlns:dc="http://purl.org/dc/elements/1.1/"
   xmlns:cc="http://creativecommons.org/ns#"
   xmlns:rdf="http://www.w3.org/1999/02/22-rdf-syntax-ns#"
   xmlns:svg="http://www.w3.org/2000/svg"
   xmlns="http://www.w3.org/2000/svg"
   id="svg8"
   version="1.1"
   viewBox="0 0 150 150"
   height="150mm"
   width="150mm">
  <defs
     id="defs2" />
  <metadata
     id="metadata5">
    <rdf:RDF>
      <cc:Work
         rdf:about="">
        <dc:format>image/svg+xml</dc:format>
        <dc:type
           rdf:resource="http://purl.org/dc/dcmitype/StillImage" />
        <dc:title></dc:title>
      </cc:Work>
    </rdf:RDF>
  </metadata>
  <g
     transform="translate(0,-147)"
     id="layer1">
    <g
       style="stroke-width:0.65974903"
       transform="matrix(1.0717815,-1.0717815,1.0717815,1.0717815,365.43719,-555.85979)"
       id="g90">
      <g
         id="text44-7"
         style="font-style:normal;font-weight:normal;font-size:35.26105118px;line-height:1000;font-family:sans-serif;letter-spacing:12.79976273px;word-spacing:0px;fill:#000000;fill-opacity:1;stroke:none;stroke-width:0.17455859"
         aria-label="Pan">
        <path
           id="path28"
           style="font-style:normal;font-variant:normal;font-weight:500;font-stretch:normal;font-size:35.26092148px;font-family:Barlow;-inkscape-font-specification:'Barlow, Medium';font-variant-ligatures:normal;font-variant-caps:normal;font-variant-numeric:normal;font-feature-settings:normal;text-align:start;letter-spacing:2.64583325px;writing-mode:lr-tb;text-anchor:start;stroke-width:0.17455859"
           d="m -520.12698,192 q 2.15091,0 3.77292,0.91679 1.65726,0.88152 2.53878,2.50352 0.91679,1.62201 0.91679,3.73766 0,2.11566 -0.91679,3.7024 -0.91678,1.58674 -2.60931,2.46826 -1.65726,0.88153 -3.84344,0.88153 h -6.20592 q -0.14104,0 -0.14104,0.14104 v 10.0141 q 0,0.35261 -0.35261,0.35261 h -2.67983 q -0.35261,0 -0.35261,-0.35261 v -24.01269 q 0,-0.35261 0.35261,-0.35261 z m -0.45839,11.4598 q 1.93935,0 3.10296,-1.16361 1.19887,-1.16361 1.19887,-3.0677 0,-1.93935 -1.19887,-3.10296 -1.16361,-1.19887 -3.10296,-1.19887 h -5.88858 q -0.14104,0 -0.14104,0.14104 v 8.25106 q 0,0.14104 0.14104,0.14104 z" />
        <path
           id="path30"
           style="font-style:normal;font-variant:normal;font-weight:500;font-stretch:normal;font-size:35.26092148px;font-family:Barlow;-inkscape-font-specification:'Barlow, Medium';font-variant-ligatures:normal;font-variant-caps:normal;font-variant-numeric:normal;font-feature-settings:normal;text-align:start;letter-spacing:2.64583325px;writing-mode:lr-tb;text-anchor:start;stroke-width:0.17455859"
           d="m -500.20881,198.48801 q 2.15092,0 3.73766,0.77574 1.622,0.74048 2.46826,2.11566 0.88153,1.33991 0.88153,3.0677 v 11.91819 q 0,0.35261 -0.35261,0.35261 h -2.67983 q -0.35261,0 -0.35261,-0.35261 v -1.26939 q 0,-0.17631 -0.17631,-0.0705 -0.91678,0.95204 -2.25669,1.48096 -1.30466,0.49365 -2.92666,0.49365 -2.60931,0 -4.33709,-1.30466 -1.69253,-1.33991 -1.69253,-4.01974 0,-2.75035 1.90409,-4.30183 1.93935,-1.58674 5.39492,-1.58674 h 3.94923 q 0.14104,0 0.14104,-0.14105 v -0.95204 q 0,-1.55148 -0.91678,-2.39775 -0.88153,-0.88152 -2.7151,-0.88152 -1.48095,0 -2.433,0.59944 -0.91678,0.56417 -1.12835,1.55148 -0.10578,0.35261 -0.42313,0.31735 l -2.85613,-0.38787 q -0.35261,-0.0705 -0.31735,-0.28209 0.28208,-2.0804 2.22144,-3.38505 1.93935,-1.33992 4.866,-1.33992 z m -0.91678,15.65585 q 1.86883,0 3.244,-0.9873 1.37518,-0.98731 1.37518,-2.50353 v -2.08039 q 0,-0.14105 -0.14104,-0.14105 h -3.31453 q -2.0804,0 -3.31453,0.81101 -1.23413,0.811 -1.23413,2.25669 0,1.30466 0.91678,1.97462 0.95205,0.66995 2.46827,0.66995 z" />
        <path
           id="path32"
           style="font-style:normal;font-variant:normal;font-weight:500;font-stretch:normal;font-size:35.26092148px;font-family:Barlow;-inkscape-font-specification:'Barlow, Medium';font-variant-ligatures:normal;font-variant-caps:normal;font-variant-numeric:normal;font-feature-settings:normal;text-align:start;letter-spacing:2.64583325px;writing-mode:lr-tb;text-anchor:start;stroke-width:0.17455859"
           d="m -477.867,198.52328 q 2.8914,0 4.58392,1.69252 1.69253,1.65726 1.69253,4.5134 v 11.6361 q 0,0.35261 -0.35261,0.35261 h -2.67983 q -0.35261,0 -0.35261,-0.35261 v -10.96615 q 0,-1.76304 -1.02257,-2.85613 -1.02256,-1.09309 -2.71509,-1.09309 -1.65726,0 -2.71509,1.09309 -1.05783,1.09309 -1.05783,2.82087 v 11.00141 q 0,0.35261 -0.35261,0.35261 h -2.67983 q -0.3526,0 -0.3526,-0.35261 v -17.24259 q 0,-0.35261 0.3526,-0.35261 h 2.67983 q 0.35261,0 0.35261,0.35261 v 1.26939 q 0,0.0705 0.0353,0.10579 0.0705,0.0353 0.10579,-0.0353 1.51622,-1.93935 4.47813,-1.93935 z" />
      </g>
      <g
         id="text48-9"
         style="font-style:normal;font-weight:normal;font-size:34.43531799px;line-height:1000;font-family:sans-serif;letter-spacing:12.50002289px;word-spacing:0px;fill:#000000;fill-opacity:1;stroke:none;stroke-width:0.17455859"
         aria-label="Comi">
        <path
           id="path35"
           style="font-style:normal;font-variant:normal;font-weight:500;font-stretch:normal;font-size:34.43527222px;font-family:Barlow;-inkscape-font-specification:'Barlow, Medium';font-variant-ligatures:normal;font-variant-caps:normal;font-variant-numeric:normal;font-feature-settings:normal;text-align:start;letter-spacing:2.64583325px;writing-mode:lr-tb;text-anchor:start;stroke-width:0.17455859"
           d="m -521.59781,242.00001 q -2.47933,0 -4.40771,-0.96419 -1.89394,-0.99862 -2.96143,-2.78925 -1.03306,-1.82507 -1.03306,-4.16667 v -8.91874 q 0,-2.3416 1.03306,-4.09779 1.06749,-1.79064 2.96143,-2.75483 1.92838,-0.99862 4.40771,-0.99862 2.47934,0 4.37328,0.96419 1.89394,0.92975 2.927,2.65151 1.0675,1.72177 1.0675,3.9945 v 0.0344 q 0,0.17218 -0.10331,0.27548 -0.10331,0.10331 -0.24105,0.10331 l -2.61708,0.13774 q -0.34435,0 -0.34435,-0.30992 v -0.1033 q 0,-2.20386 -1.37741,-3.54684 -1.37741,-1.34297 -3.68458,-1.34297 -2.30716,0 -3.719,1.34297 -1.37742,1.34298 -1.37742,3.54684 v 9.15978 q 0,2.20386 1.37742,3.54683 1.41184,1.34298 3.719,1.34298 2.30717,0 3.68458,-1.34298 1.37741,-1.34297 1.37741,-3.54683 v -0.0689 q 0,-0.30992 0.34435,-0.30992 l 2.61708,0.13774 q 0.34436,0 0.34436,0.34436 0,2.27272 -1.0675,4.02892 -1.03306,1.72177 -2.927,2.68595 -1.89394,0.96419 -4.37328,0.96419 z" />
        <path
           id="path37"
           style="font-style:normal;font-variant:normal;font-weight:500;font-stretch:normal;font-size:34.43527222px;font-family:Barlow;-inkscape-font-specification:'Barlow, Medium';font-variant-ligatures:normal;font-variant-caps:normal;font-variant-numeric:normal;font-feature-settings:normal;text-align:start;letter-spacing:2.64583325px;writing-mode:lr-tb;text-anchor:start;stroke-width:0.17455859"
           d="m -499.10111,241.96558 q -2.54821,0 -4.44215,-1.27411 -1.89394,-1.30854 -2.65152,-3.6157 -0.61983,-1.85951 -0.61983,-4.20111 0,-2.4449 0.5854,-4.13223 0.75757,-2.27273 2.65151,-3.54683 1.89394,-1.30854 4.51102,-1.30854 2.47934,0 4.30441,1.30854 1.85951,1.2741 2.65152,3.5124 0.61983,1.7562 0.61983,4.13223 0,2.41047 -0.61983,4.23554 -0.75758,2.30716 -2.61708,3.6157 -1.85951,1.27411 -4.37328,1.27411 z m 0,-2.85813 q 1.37741,0 2.41047,-0.75758 1.03305,-0.79201 1.48071,-2.20385 0.37879,-1.30855 0.37879,-3.23692 0,-1.92838 -0.34435,-3.20248 -0.44766,-1.41185 -1.48072,-2.16942 -1.03306,-0.79201 -2.51377,-0.79201 -1.41185,0 -2.44491,0.79201 -1.03306,0.75757 -1.48071,2.16942 -0.37879,1.20523 -0.37879,3.20248 0,1.99725 0.37879,3.23692 0.41322,1.41184 1.44628,2.20385 1.06749,0.75758 2.54821,0.75758 z" />
        <path
           id="path39"
           style="font-style:normal;font-variant:normal;font-weight:500;font-stretch:normal;font-size:34.43527222px;font-family:Barlow;-inkscape-font-specification:'Barlow, Medium';font-variant-ligatures:normal;font-variant-caps:normal;font-variant-numeric:normal;font-feature-settings:normal;text-align:start;letter-spacing:2.64583325px;writing-mode:lr-tb;text-anchor:start;stroke-width:0.17455859"
           d="m -466.30074,223.92149 q 2.61708,0 4.13223,1.58403 1.51515,1.54958 1.51515,4.33884 v 11.50138 q 0,0.34435 -0.34435,0.34435 h -2.58265 q -0.34435,0 -0.34435,-0.34435 v -10.81267 q 0,-1.72177 -0.96419,-2.72039 -0.92975,-1.03306 -2.51377,-1.03306 -1.58402,0 -2.58265,0.99862 -0.99862,0.99863 -0.99862,2.68596 v 10.88154 q 0,0.34435 -0.34435,0.34435 h -2.58265 q -0.34435,0 -0.34435,-0.34435 v -10.81267 q 0,-1.72177 -0.96419,-2.72039 -0.92975,-1.03306 -2.51377,-1.03306 -1.58403,0 -2.54821,0.99862 -0.92976,0.99863 -0.92976,2.68596 v 10.88154 q 0,0.34435 -0.34435,0.34435 h -2.61708 q -0.34435,0 -0.34435,-0.34435 v -16.83885 q 0,-0.34435 0.34435,-0.34435 h 2.61708 q 0.34435,0 0.34435,0.34435 v 1.1708 q 0,0.0689 0.0344,0.10331 0.0689,0.0344 0.13774,-0.0344 1.51515,-1.82507 4.40772,-1.82507 1.75619,0 2.99586,0.68871 1.23967,0.65427 1.92838,1.96281 0.1033,0.13774 0.20661,0 0.82645,-1.34298 2.16942,-1.99725 1.37741,-0.65427 3.03031,-0.65427 z" />
        <path
           id="path41"
           style="font-style:normal;font-variant:normal;font-weight:500;font-stretch:normal;font-size:34.43527222px;font-family:Barlow;-inkscape-font-specification:'Barlow, Medium';font-variant-ligatures:normal;font-variant-caps:normal;font-variant-numeric:normal;font-feature-settings:normal;text-align:start;letter-spacing:2.64583325px;writing-mode:lr-tb;text-anchor:start;stroke-width:0.17455859"
           d="m -451.42447,221.40772 q -0.96419,0 -1.58402,-0.61984 -0.61984,-0.61983 -0.61984,-1.58402 0,-0.96419 0.61984,-1.58402 0.61983,-0.61984 1.58402,-0.61984 0.96419,0 1.58402,0.61984 0.61984,0.61983 0.61984,1.58402 0,0.96419 -0.61984,1.58402 -0.61983,0.61984 -1.58402,0.61984 z m -1.37741,20.24794 q -0.34435,0 -0.34435,-0.34435 v -16.80442 q 0,-0.34435 0.34435,-0.34435 h 2.61708 q 0.34435,0 0.34435,0.34435 v 16.80442 q 0,0.34435 -0.34435,0.34435 z" />
      </g>
      <g
         id="text52-9"
         style="font-style:normal;font-weight:normal;font-size:34.86758804px;line-height:1000;font-family:sans-serif;letter-spacing:12.65693569px;word-spacing:0px;fill:#000000;fill-opacity:1;stroke:none;stroke-width:0.17455859"
         aria-label="Con">
        <path
           id="path44"
           style="font-style:normal;font-variant:normal;font-weight:500;font-stretch:normal;font-size:34.86750412px;font-family:Barlow;-inkscape-font-specification:'Barlow, Medium';font-variant-ligatures:normal;font-variant-caps:normal;font-variant-numeric:normal;font-feature-settings:normal;text-align:start;letter-spacing:2.64583325px;writing-mode:lr-tb;text-anchor:start;stroke-width:0.17455859"
           d="m -521.49233,267 q -2.51046,0 -4.46304,-0.97629 -1.91771,-1.01116 -2.99861,-2.82427 Q -530,261.35146 -530,258.98047 v -9.03068 q 0,-2.37099 1.04602,-4.14924 1.0809,-1.81311 2.99861,-2.7894 1.95258,-1.01116 4.46304,-1.01116 2.51046,0 4.42817,0.97629 1.91771,0.94143 2.96374,2.6848 1.08089,1.74338 1.08089,4.04463 v 0.0349 q 0,0.17434 -0.1046,0.27894 -0.1046,0.1046 -0.24407,0.1046 l -2.64993,0.13947 q -0.34868,0 -0.34868,-0.3138 v -0.10461 q 0,-2.23152 -1.3947,-3.59135 -1.3947,-1.35983 -3.73082,-1.35983 -2.33612,0 -3.76569,1.35983 -1.3947,1.35983 -1.3947,3.59135 v 9.27476 q 0,2.23152 1.3947,3.59135 1.42957,1.35983 3.76569,1.35983 2.33612,0 3.73082,-1.35983 1.3947,-1.35983 1.3947,-3.59135 v -0.0697 q 0,-0.3138 0.34868,-0.3138 l 2.64993,0.13947 q 0.34867,0 0.34867,0.34867 0,2.30126 -1.08089,4.0795 -1.04603,1.74338 -2.96374,2.71967 Q -518.98187,267 -521.49233,267 Z" />
        <path
           id="path46"
           style="font-style:normal;font-variant:normal;font-weight:500;font-stretch:normal;font-size:34.86750412px;font-family:Barlow;-inkscape-font-specification:'Barlow, Medium';font-variant-ligatures:normal;font-variant-caps:normal;font-variant-numeric:normal;font-feature-settings:normal;text-align:start;letter-spacing:2.64583325px;writing-mode:lr-tb;text-anchor:start;stroke-width:0.17455859"
           d="m -498.74647,266.96513 q -2.5802,0 -4.49791,-1.2901 -1.91771,-1.32497 -2.6848,-3.66109 -0.62761,-1.88284 -0.62761,-4.25383 0,-2.4756 0.59275,-4.1841 0.76708,-2.30126 2.68479,-3.59136 1.91772,-1.32496 4.56765,-1.32496 2.51046,0 4.35844,1.32496 1.88284,1.2901 2.68479,3.55649 0.62762,1.77824 0.62762,4.1841 0,2.44072 -0.62762,4.2887 -0.76708,2.33612 -2.64993,3.66109 -1.88284,1.2901 -4.42817,1.2901 z m 0,-2.89401 q 1.3947,0 2.44073,-0.76708 1.04602,-0.80195 1.4993,-2.23152 0.38354,-1.32497 0.38354,-3.27755 0,-1.95258 -0.34867,-3.24267 -0.45328,-1.42957 -1.49931,-2.19666 -1.04602,-0.80195 -2.54533,-0.80195 -1.42956,0 -2.47559,0.80195 -1.04602,0.76709 -1.4993,2.19666 -0.38354,1.22036 -0.38354,3.24267 0,2.02232 0.38354,3.27755 0.41841,1.42957 1.46443,2.23152 1.0809,0.76708 2.5802,0.76708 z" />
        <path
           id="path48"
           style="font-style:normal;font-variant:normal;font-weight:500;font-stretch:normal;font-size:34.86750412px;font-family:Barlow;-inkscape-font-specification:'Barlow, Medium';font-variant-ligatures:normal;font-variant-caps:normal;font-variant-numeric:normal;font-feature-settings:normal;text-align:start;letter-spacing:2.64583325px;writing-mode:lr-tb;text-anchor:start;stroke-width:0.17455859"
           d="m -476.09759,248.69456 q 2.85914,0 4.53278,1.67364 1.67364,1.63877 1.67364,4.46304 v 11.50627 q 0,0.34868 -0.34868,0.34868 h -2.64993 q -0.34867,0 -0.34867,-0.34868 v -10.84379 q 0,-1.74338 -1.01116,-2.82427 -1.01116,-1.08089 -2.6848,-1.08089 -1.63877,0 -2.68479,1.08089 -1.04603,1.08089 -1.04603,2.7894 v 10.87866 q 0,0.34868 -0.34867,0.34868 h -2.64994 q -0.34867,0 -0.34867,-0.34868 V 249.2873 q 0,-0.34867 0.34867,-0.34867 h 2.64994 q 0.34867,0 0.34867,0.34867 v 1.25523 q 0,0.0697 0.0349,0.10461 0.0697,0.0349 0.1046,-0.0349 1.4993,-1.91771 4.42817,-1.91771 z" />
      </g>
    </g>
  </g>
</svg>
