<svg xmlns="http://www.w3.org/2000/svg" viewBox="0 0 150 150" height="566.929" width="566.929"  xmlns:v="https://vecta.io/nano"><g transform="matrix(1.071782 -1.071781 1.071782 1.071782 365.43719 -702.85979)"><path d="M-520.127 192q2.151 0 3.773.917 1.657.882 2.539 2.504.917 1.622.917 3.738 0 2.116-.917 3.702-.917 1.587-2.609 2.468-1.657.882-3.843.882h-6.206q-.141 0-.141.141v10.014q0 .353-.353.353h-2.68q-.353 0-.353-.353v-24.013q0-.353.353-.353zm-.458 11.46q1.939 0 3.103-1.164 1.199-1.164 1.199-3.068 0-1.939-1.199-3.103-1.164-1.199-3.103-1.199h-5.889q-.141 0-.141.141v8.251q0 .141.141.141zm20.376-4.972q2.151 0 3.738.776 1.622.74 2.468 2.116.882 1.34.882 3.068v11.918q0 .353-.353.353h-2.68q-.353 0-.353-.353v-1.269q0-.176-.176-.071-.917.952-2.257 1.481-1.305.494-2.927.494-2.609 0-4.337-1.305-1.693-1.34-1.693-4.02 0-2.75 1.904-4.302 1.939-1.587 5.395-1.587h3.949q.141 0 .141-.141v-.952q0-1.551-.917-2.398-.882-.882-2.715-.882-1.481 0-2.433.599-.917.564-1.128 1.551-.106.353-.423.317l-2.856-.388q-.353-.071-.317-.282.282-2.08 2.221-3.385 1.939-1.34 4.866-1.34zm-.917 15.656q1.869 0 3.244-.987 1.375-.987 1.375-2.504v-2.08q0-.141-.141-.141h-3.315q-2.08 0-3.315.811-1.234.811-1.234 2.257 0 1.305.917 1.975.952.67 2.468.67zm23.259-15.621q2.891 0 4.584 1.693 1.693 1.657 1.693 4.513v11.636q0 .353-.353.353h-2.68q-.353 0-.353-.353v-10.966q0-1.763-1.023-2.856-1.023-1.093-2.715-1.093-1.657 0-2.715 1.093-1.058 1.093-1.058 2.821v11.001q0 .353-.353.353h-2.68q-.353 0-.353-.353v-17.243q0-.353.353-.353h2.68q.353 0 .353.353v1.269q0 .071.035.106.07.035.106-.035 1.516-1.939 4.478-1.939zM-521.598 242q-2.479 0-4.408-.964-1.894-.999-2.961-2.789-1.033-1.825-1.033-4.167v-8.919q0-2.342 1.033-4.098 1.067-1.791 2.961-2.755 1.928-.999 4.408-.999 2.479 0 4.373.964 1.894.93 2.927 2.652 1.067 1.722 1.067 3.994v.034q0 .172-.103.275-.103.103-.241.103l-2.617.138q-.344 0-.344-.31v-.103q0-2.204-1.377-3.547-1.377-1.343-3.685-1.343-2.307 0-3.719 1.343-1.377 1.343-1.377 3.547v9.16q0 2.204 1.377 3.547 1.412 1.343 3.719 1.343 2.307 0 3.685-1.343 1.377-1.343 1.377-3.547v-.069q0-.31.344-.31l2.617.138q.344 0 .344.344 0 2.273-1.067 4.029-1.033 1.722-2.927 2.686-1.894.964-4.373.964z"/><path d="M-499.101 241.966q-2.548 0-4.442-1.274-1.894-1.309-2.652-3.616-.62-1.86-.62-4.201 0-2.445.585-4.132.758-2.273 2.652-3.547 1.894-1.309 4.511-1.309 2.479 0 4.304 1.309 1.86 1.274 2.652 3.512.62 1.756.62 4.132 0 2.41-.62 4.236-.758 2.307-2.617 3.616-1.86 1.274-4.373 1.274zm0-2.858q1.377 0 2.41-.758 1.033-.792 1.481-2.204.379-1.309.379-3.237 0-1.928-.344-3.202-.448-1.412-1.481-2.169-1.033-.792-2.514-.792-1.412 0-2.445.792-1.033.758-1.481 2.169-.379 1.205-.379 3.202 0 1.997.379 3.237.413 1.412 1.446 2.204 1.067.758 2.548.758zm32.8-15.187q2.617 0 4.132 1.584 1.515 1.55 1.515 4.339v11.501q0 .344-.344.344h-2.583q-.344 0-.344-.344v-10.813q0-1.722-.964-2.72-.93-1.033-2.514-1.033-1.584 0-2.583.999-.999.999-.999 2.686v10.882q0 .344-.344.344h-2.583q-.344 0-.344-.344v-10.813q0-1.722-.964-2.72-.93-1.033-2.514-1.033-1.584 0-2.548.999-.93.999-.93 2.686v10.882q0 .344-.344.344h-2.617q-.344 0-.344-.344v-16.839q0-.344.344-.344h2.617q.344 0 .344.344v1.171q0 .069.034.103.069.034.138-.034 1.515-1.825 4.408-1.825 1.756 0 2.996.689 1.24.654 1.928 1.963.103.138.207 0 .826-1.343 2.169-1.997 1.377-.654 3.03-.654zm14.877-2.513q-.964 0-1.584-.62-.62-.62-.62-1.584 0-.964.62-1.584.62-.62 1.584-.62.964 0 1.584.62.62.62.62 1.584 0 .964-.62 1.584-.62.62-1.584.62zm-1.377 20.248q-.344 0-.344-.344v-16.804q0-.344.344-.344h2.617q.344 0 .344.344v16.804q0 .344-.344.344zM-521.492 267q-2.51 0-4.463-.976-1.918-1.011-2.999-2.824-1.046-1.848-1.046-4.219v-9.031q0-2.371 1.046-4.149 1.081-1.813 2.999-2.789 1.953-1.011 4.463-1.011 2.51 0 4.428.976 1.918.941 2.964 2.685 1.081 1.743 1.081 4.045v.035q0 .174-.105.279-.105.105-.244.105l-2.65.139q-.349 0-.349-.314v-.105q0-2.232-1.395-3.591-1.395-1.36-3.731-1.36-2.336 0-3.766 1.36-1.395 1.36-1.395 3.591v9.275q0 2.232 1.395 3.591 1.43 1.36 3.766 1.36 2.336 0 3.731-1.36 1.395-1.36 1.395-3.591v-.07q0-.314.349-.314l2.65.139q.349 0 .349.349 0 2.301-1.081 4.079-1.046 1.743-2.964 2.72-1.918.976-4.428.976zm22.746-.035q-2.58 0-4.498-1.29-1.918-1.325-2.685-3.661-.628-1.883-.628-4.254 0-2.476.593-4.184.767-2.301 2.685-3.591 1.918-1.325 4.568-1.325 2.51 0 4.358 1.325 1.883 1.29 2.685 3.556.628 1.778.628 4.184 0 2.441-.628 4.289-.767 2.336-2.65 3.661-1.883 1.29-4.428 1.29zm0-2.894q1.395 0 2.441-.767 1.046-.802 1.499-2.232.384-1.325.384-3.278 0-1.953-.349-3.243-.453-1.43-1.499-2.197-1.046-.802-2.545-.802-1.43 0-2.476.802-1.046.767-1.499 2.197-.384 1.22-.384 3.243 0 2.022.384 3.278.418 1.43 1.464 2.232 1.081.767 2.58.767zm22.648-15.376q2.859 0 4.533 1.674 1.674 1.639 1.674 4.463v11.506q0 .349-.349.349h-2.65q-.349 0-.349-.349v-10.844q0-1.743-1.011-2.824-1.011-1.081-2.685-1.081-1.639 0-2.685 1.081-1.046 1.081-1.046 2.789v10.879q0 .349-.349.349h-2.65q-.349 0-.349-.349v-17.05q0-.349.349-.349h2.65q.349 0 .349.349v1.255q0 .07.035.105.07.035.105-.035 1.499-1.918 4.428-1.918z"/></g></svg>